<svg xmlns="http://www.w3.org/2000/svg" viewBox="0 0 333.17 331.65">
    <path d="M31.77,166.15,127.26,87.5h0V5.1a166.13,166.13,0,0,0-95.5,258.42Z"/>
    <path d="M144.11,166.15,161,87.5h0V.52c-1.88.06-3.75.15-5.62.28V87.5l-22.47,78.65v163q5.55,1.14,11.23,1.91Z"/>
    <path d="M87.94,166.15,144.12,87.5h0V1.93c-1.88.25-3.76.54-5.62.86V87.5L76.71,166.15v140c3.65,2.35,7.39,4.57,11.23,6.63Z"/>
    <path d="M200.29,166.15,177.82,87.5h0V.8C176,.67,174.08.58,172.2.52v87l16.85,78.65V331.08q5.69-.76,11.24-1.91Z"/>
    <path d="M194.68,2.79c-1.87-.32-3.74-.6-5.63-.86V87.5l56.18,78.65V312.82c3.83-2.06,7.58-4.28,11.23-6.63v-140L194.67,87.5h0Z"/>
    <path d="M205.91,87.5l95.49,78.65v97.37A166.14,166.14,0,0,0,205.91,5.1Z"/>
</svg>