<svg xmlns="http://www.w3.org/2000/svg" viewBox="0 0 1425.13 196.59">
    <path d="M16.23,154.76V69.32H.5V46.86H16.23V37.38C16.23,15.09,27.29.5,50.64.5c5,0,11.2.44,13.88,1.28V25.36a39.19,39.19,0,0,0-6.3-.51c-8.81,0-12.12,3.25-12.12,14.78v7.23H65V69.32H46.1v85.44Z"/>
    <path d="M76.7,2.59h29.88V29.23H76.7Zm0,44.27h29.88v107.9H76.7Z"/>
    <path d="M148.46,46.86c10.28,36.54,18.83,68.51,21,81.49h.21c3-17.81,13.6-50.34,23-81.49h29.77l-38.12,107.9H152.86L116.3,46.86Z"/>
    <path d="M249.62,107.2c0,13.5,6.78,26.69,21.66,26.69,12.44,0,16-5,18.82-11.53H320c-3.82,13.21-15.61,34.91-49.51,34.91-35.54,0-51-26.58-51-54.89,0-33.85,17.37-58,52-58,37.06,0,49.66,26.81,49.66,53.75a66.73,66.73,0,0,1-.39,9.1Zm41.67-18.35c-.2-12.56-5.22-23.14-19.78-23.14-14.32,0-20.08,9.88-21.27,23.14Z"/>
    <path d="M361.85,145.21v50.88H332.16V72.87c0-8.74,0-17.36-.21-26h28.93a121.18,121.18,0,0,1,1,13.44c4.63-7.92,14.26-15.95,31.37-15.95,24.23,0,43,20.28,43,53.75,0,38.08-20.93,59.17-47.07,59.17C373.9,157.27,366,151.52,361.85,145.21Zm44-46c0-19.78-8-30.94-22.22-30.94-17,0-23,10.89-23,32.63,0,20.6,5.57,32.58,21.71,32.58C398.19,133.52,405.88,121.23,405.88,99.25Z"/>
    <path d="M445.93,2.59H475.8V29.23H445.93Zm0,44.27H475.8v107.9H445.93Z"/>
    <path d="M519.77,46.86C531,67.18,535.58,75.15,538.84,80.67h.2c3.72-6.53,10.29-18.42,19.06-33.81h33.18l-35,51.36,34.88,56.54h-33.8c-9.69-18.27-15.76-30.07-18.93-36.27h-.2c-2.86,5.68-10.23,19.67-19.06,36.27H486.53l33.41-52.58L486.73,46.86Z"/>
    <path d="M615.8,107.2c0,13.5,6.78,26.69,21.66,26.69,12.44,0,16-5,18.82-11.53h29.91c-3.83,13.21-15.62,34.91-49.52,34.91-35.54,0-51-26.58-51-54.89,0-33.85,17.37-58,52-58,37.06,0,49.66,26.81,49.66,53.75a66.73,66.73,0,0,1-.39,9.1Zm41.67-18.35c-.2-12.56-5.22-23.14-19.78-23.14-14.31,0-20.08,9.88-21.27,23.14Z"/>
    <path d="M697.13,154.76V2.59H727V154.76Z"/>
    <path d="M768.58,145.21v50.88H738.89V72.87c0-8.74,0-17.36-.21-26h28.93a121.18,121.18,0,0,1,1,13.44c4.63-7.92,14.26-15.95,31.37-15.95,24.23,0,43,20.28,43,53.75,0,38.08-20.93,59.17-47.08,59.17C780.63,157.27,772.69,151.52,768.58,145.21Zm44-46c0-19.78-8-30.94-22.22-30.94-17,0-23,10.89-23,32.63,0,20.6,5.57,32.58,21.71,32.58C804.92,133.52,812.61,121.23,812.61,99.25Z"/>
    <path d="M946.23,126.88c0,10.28.83,25.28,1.46,27.88H919.15c-.84-2.13-1.46-7.82-1.51-10.54-3.91,6.06-11.25,13.05-30.34,13.05-26,0-37-17.11-37-33.84,0-24.59,19.74-35.93,51.38-35.93h15.4V80.9c0-7.67-2.76-15.21-16.62-15.21-12.61,0-15.37,5.36-16.75,13.17H855.31c1.62-19.17,13.48-34.69,46.29-34.51,28.9.19,44.63,11.48,44.63,37.16Zm-29.12-21.24H904.94c-18,0-24.68,5.5-24.68,15.9,0,7.81,4.79,14.39,15.53,14.39,19,0,21.32-13.2,21.32-27.45Z"/>
    <path d="M958.27,76.13c0-10.73,0-20.25-.21-29.27h29.31c.39,2.41.78,13.12.78,18.94,4.76-12.33,16.27-21.35,34.62-21.45V72.86c-21.68-.56-34.62,5.28-34.62,34.86v47H958.27Z"/>
    <path d="M1122.85,126.88c0,10.28.83,25.28,1.46,27.88h-28.54c-.84-2.13-1.46-7.82-1.51-10.54-3.91,6.06-11.25,13.05-30.34,13.05-26,0-37-17.11-37-33.84,0-24.59,19.74-35.93,51.38-35.93h15.4V80.9c0-7.67-2.76-15.21-16.62-15.21-12.61,0-15.37,5.36-16.75,13.17h-28.41c1.62-19.17,13.48-34.69,46.29-34.51,28.9.19,44.63,11.48,44.63,37.16Zm-29.12-21.24h-12.17c-18,0-24.68,5.5-24.68,15.9,0,7.81,4.79,14.39,15.53,14.39,19,0,21.32-13.2,21.32-27.45Z"/>
    <path d="M1134,154.76V2.59h29.87V154.76Z"/>
    <path d="M1174.64,154.76V2.59h29.88V154.76Z"/>
    <path d="M1309.55,126.88c0,10.28.83,25.28,1.46,27.88h-28.54c-.84-2.13-1.46-7.82-1.51-10.54-3.92,6.06-11.25,13.05-30.34,13.05-26,0-37-17.11-37-33.84,0-24.59,19.74-35.93,51.37-35.93h15.4V80.9c0-7.67-2.76-15.21-16.61-15.21-12.61,0-15.37,5.36-16.75,13.17h-28.41c1.62-19.17,13.48-34.69,46.29-34.51,28.9.19,44.63,11.48,44.63,37.16Zm-29.12-21.24h-12.17c-18,0-24.68,5.5-24.68,15.9,0,7.81,4.79,14.39,15.53,14.39,19,0,21.32-13.2,21.32-27.45Z"/>
    <path d="M1352.68,46.86c11.24,20.32,15.81,28.29,19.06,33.81h.21c3.72-6.53,10.29-18.42,19.06-33.81h33.17l-35,51.36,34.88,56.54h-33.79c-9.69-18.27-15.76-30.07-18.93-36.27h-.21c-2.86,5.68-10.22,19.67-19.06,36.27h-32.64l33.41-52.58-33.21-55.32Z"/>
</svg>