<svg xmlns="http://www.w3.org/2000/svg" viewBox="0 0 1423.68 617.32">
    <path d="M15.73,576V490.54H0V468.08H15.73V458.6c0-22.28,11.06-36.87,34.41-36.87,5,0,11.2.44,13.88,1.27v23.59a39.07,39.07,0,0,0-6.3-.52c-8.81,0-12.12,3.25-12.12,14.78v7.23H64.47v22.46H45.6V576Z"/>
    <path d="M76.2,423.81h29.88v26.65H76.2Zm0,44.27h29.88V576H76.2Z"/>
    <path d="M148,468.08c10.28,36.55,18.83,68.52,21,81.49h.21c3-17.8,13.6-50.34,23-81.49h29.77L183.77,576H152.36L115.8,468.08Z"/>
    <path d="M249.12,528.42c0,13.5,6.78,26.69,21.66,26.69,12.44,0,16-5,18.82-11.52h29.9c-3.82,13.21-15.61,34.9-49.51,34.9-35.54,0-51-26.58-51-54.89,0-33.85,17.37-58,52-58,37.06,0,49.66,26.81,49.66,53.75a66.5,66.5,0,0,1-.39,9.09Zm41.67-18.34c-.2-12.57-5.22-23.14-19.78-23.14-14.32,0-20.08,9.87-21.27,23.14Z"/>
    <path d="M361.35,566.44v50.88H331.66V494.09c0-8.73,0-17.35-.21-26h28.93a121.18,121.18,0,0,1,1,13.44c4.63-7.92,14.26-15.94,31.37-15.94,24.23,0,43,20.27,43,53.74,0,38.08-20.93,59.17-47.07,59.17C373.4,578.49,365.46,572.75,361.35,566.44Zm44-46c0-19.78-8-31-22.22-31-17,0-23,10.89-23,32.64,0,20.59,5.57,32.57,21.71,32.57C397.69,554.74,405.38,542.46,405.38,520.48Z"/>
    <path d="M445.43,423.81H475.3v26.65H445.43Zm0,44.27H475.3V576H445.43Z"/>
    <path d="M519.27,468.08c11.25,20.32,15.81,28.3,19.07,33.82h.2c3.72-6.54,10.29-18.43,19.06-33.82h33.18l-35,51.37L590.67,576h-33.8c-9.69-18.27-15.76-30.08-18.93-36.27h-.2c-2.86,5.68-10.23,19.67-19.06,36.27H486l33.41-52.59-33.21-55.32Z"/>
    <path d="M615.3,528.42c0,13.5,6.78,26.69,21.66,26.69,12.44,0,16-5,18.82-11.52h29.91c-3.83,13.21-15.62,34.9-49.52,34.9-35.54,0-51-26.58-51-54.89,0-33.85,17.37-58,52-58,37.06,0,49.66,26.81,49.66,53.75a66.5,66.5,0,0,1-.39,9.09ZM657,510.08c-.2-12.57-5.22-23.14-19.78-23.14-14.31,0-20.08,9.87-21.27,23.14Z"/>
    <path d="M696.63,576V423.81h29.88V576Z"/>
    <path d="M768.08,566.44v50.88H738.39V494.09c0-8.73,0-17.35-.21-26h28.93a121.18,121.18,0,0,1,1,13.44c4.63-7.92,14.26-15.94,31.37-15.94,24.23,0,43,20.27,43,53.74,0,38.08-20.93,59.17-47.08,59.17C780.13,578.49,772.19,572.75,768.08,566.44Zm44-46c0-19.78-8-31-22.22-31-17,0-23,10.89-23,32.64,0,20.59,5.57,32.57,21.71,32.57C804.42,554.74,812.11,542.46,812.11,520.48Z"/>
    <path d="M945.73,548.11c0,10.27.83,25.28,1.46,27.88H918.65c-.84-2.14-1.46-7.82-1.51-10.55-3.91,6.06-11.25,13-30.34,13-26,0-37-17.1-37-33.84,0-24.58,19.74-35.93,51.38-35.93h15.4v-6.59c0-7.67-2.76-15.22-16.62-15.22-12.61,0-15.37,5.36-16.75,13.18H854.81c1.62-19.18,13.48-34.7,46.29-34.51,28.9.18,44.63,11.47,44.63,37.16Zm-29.12-21.24H904.44c-18,0-24.68,5.49-24.68,15.89,0,7.82,4.79,14.4,15.53,14.4,19,0,21.32-13.2,21.32-27.46Z"/>
    <path d="M957.77,497.35c0-10.72,0-20.25-.21-29.27h29.31c.39,2.42.78,13.13.78,18.95,4.76-12.34,16.27-21.35,34.62-21.45v28.51c-21.68-.56-34.62,5.27-34.62,34.85v47H957.77Z"/>
    <path d="M1122.35,548.11c0,10.27.83,25.28,1.46,27.88h-28.54c-.84-2.14-1.46-7.82-1.51-10.55-3.91,6.06-11.25,13-30.34,13-26,0-37-17.1-37-33.84,0-24.58,19.74-35.93,51.38-35.93h15.4v-6.59c0-7.67-2.76-15.22-16.62-15.22-12.61,0-15.37,5.36-16.75,13.18h-28.41c1.62-19.18,13.48-34.7,46.29-34.51,28.9.18,44.63,11.47,44.63,37.16Zm-29.12-21.24h-12.17c-18,0-24.68,5.49-24.68,15.89,0,7.82,4.79,14.4,15.53,14.4,19,0,21.32-13.2,21.32-27.46Z"/>
    <path d="M1133.54,576V423.81h29.87V576Z"/>
    <path d="M1174.14,576V423.81H1204V576Z"/>
    <path d="M1309.05,548.11c0,10.27.83,25.28,1.46,27.88H1282c-.84-2.14-1.46-7.82-1.51-10.55-3.92,6.06-11.25,13-30.34,13-26,0-37-17.1-37-33.84,0-24.58,19.74-35.93,51.37-35.93h15.4v-6.59c0-7.67-2.76-15.22-16.61-15.22-12.61,0-15.37,5.36-16.75,13.18h-28.41c1.62-19.18,13.48-34.7,46.29-34.51,28.9.18,44.63,11.47,44.63,37.16Zm-29.12-21.24h-12.17c-18,0-24.68,5.49-24.68,15.89,0,7.82,4.79,14.4,15.53,14.4,19,0,21.32-13.2,21.32-27.46Z"/>
    <path d="M1352.18,468.08c11.24,20.32,15.81,28.3,19.06,33.82h.21c3.72-6.54,10.29-18.43,19.06-33.82h33.17l-35,51.37L1423.57,576h-33.79c-9.69-18.27-15.76-30.08-18.93-36.27h-.21c-2.86,5.68-10.22,19.67-19.06,36.27h-32.64l33.41-52.59-33.21-55.32Z"/>
    <path d="M577,165.63,672.52,87h0V4.59A166.13,166.13,0,0,0,577,263Z"/>
    <path d="M689.37,165.63,706.23,87h0V0c-1.88.06-3.76.16-5.62.28V87l-22.47,78.64v163q5.55,1.14,11.23,1.91Z"/>
    <path d="M633.2,165.63,689.37,87h0V1.41c-1.89.26-3.76.54-5.62.86V87L622,165.63v140q5.47,3.54,11.23,6.64Z"/>
    <path d="M745.54,165.63,723.08,87h0V.28c-1.86-.12-3.74-.22-5.62-.28V87l16.85,78.64V330.56q5.69-.76,11.23-1.91Z"/>
    <path d="M739.93,2.27q-2.79-.47-5.62-.86V87l56.17,78.64V312.31q5.76-3.1,11.24-6.64v-140L739.93,87h0Z"/>
    <path d="M751.16,87l95.5,78.64V263A166.13,166.13,0,0,0,751.16,4.59Z"/>
</svg>